<svg width="256" height="256" viewBox="0 0 256 256" fill="none" xmlns="http://www.w3.org/2000/svg">
<rect width="256" height="256" rx="40" fill="#D7F6F1"/>
<path fill-rule="evenodd" clip-rule="evenodd" d="M63.1237 40.3654C49.3348 41.1853 48.6363 41.7516 48.6363 52.123V59.8649H43.1226C34.4654 59.8649 30.2653 61.8481 27.3408 67.3181L26 69.8249V137.131V204.437L27.3028 206.852C28.819 209.662 31.2373 212.046 33.9683 213.423C35.7211 214.307 44.4634 214.397 128.312 214.397C231.442 214.397 222.735 214.753 226.793 210.378C230.946 205.901 230.635 211.836 230.635 137.131V69.8249L229.294 67.3181C226.369 61.8481 222.169 59.8649 213.512 59.8649H207.999V52.123C207.999 42.4575 207.748 42.1023 200.22 41.0894C178.245 38.132 150.663 44.1308 132.337 55.8538C128.137 58.5406 128.5 58.5417 124.264 55.8323C109.41 46.3302 84.439 39.2612 68.5568 40.0618C67.3948 40.1203 64.9497 40.257 63.1237 40.3654ZM197.585 50.5365C198.182 50.7232 198.339 62.5608 198.338 107.081L198.335 163.39L185.812 163.444C167.947 163.523 156.291 166.22 140.994 173.815C137.176 175.711 133.848 177.355 133.6 177.469C133.35 177.583 133.147 152.791 133.147 122.377V67.078L136.92 64.6744C154.036 53.7702 184.916 46.5736 197.585 50.5365ZM71.575 71.0086C71.575 97.8364 71.5767 97.8387 84.6689 90.3214L91.5506 86.3699L98.0118 92.039C105.545 98.6484 106.639 99.3185 109.036 98.7925C112.533 98.0242 112.622 97.513 112.622 78.4436C112.622 68.8893 112.848 61.0724 113.122 61.0724C113.397 61.0724 115.774 62.3627 118.404 63.9396L123.186 66.8068L123.341 122.242C123.425 152.732 123.289 177.575 123.039 177.449C99.5972 165.675 91.5511 163.503 71.1239 163.434L58.2984 163.39L58.2967 107.15C58.295 62.7225 58.4533 50.8469 59.0496 50.6063C59.4644 50.4389 62.4525 50.2806 65.6896 50.2545L71.575 50.2068V71.0086ZM87.3811 51.7326C92.5447 52.8107 101.852 55.5491 102.524 56.1875C102.779 56.4303 102.915 62.5477 102.825 69.7813L102.662 82.9336L98.2615 79.2465C92.9697 74.8137 92.2008 74.732 86.2934 77.9743C83.8733 79.3021 81.7449 80.3887 81.5633 80.3887C81.3818 80.3887 81.2331 73.7339 81.2331 65.5993C81.2331 53.1557 81.3704 50.8105 82.099 50.8105C82.5756 50.8105 84.9526 51.2253 87.3811 51.7326ZM48.6363 129.311V189.099L50.1184 190.581L51.5999 192.063H87.544H123.488V198.719V205.374L80.879 205.208L38.2694 205.041L36.8049 203.338L35.3404 201.635L35.4993 136.733L35.6581 71.8308L37.0835 70.6772C38.2331 69.7461 39.486 69.5231 43.5726 69.5231H48.6363V129.311ZM219.551 70.6772L220.977 71.8308L221.136 136.733L221.294 201.635L219.83 203.338L218.365 205.041L175.756 205.208L133.147 205.374V198.719V192.063H169.091H205.035L206.516 190.581L207.999 189.099V129.311V69.5231H213.062C217.149 69.5231 218.402 69.7461 219.551 70.6772ZM85.1863 173.959C92.3631 175.185 101.723 178.023 107.794 180.81L111.114 182.335L84.704 182.37L58.295 182.405V177.927C58.295 174.911 58.5407 173.351 59.0496 173.146C61.2064 172.276 78.4845 172.812 85.1863 173.959ZM197.385 173.113C198.137 173.401 198.34 174.429 198.34 177.942V182.405L172.233 182.376L146.125 182.348L149.022 180.84C160.123 175.063 190.02 170.286 197.385 173.113Z" fill="#09AF92"/>
</svg>
